<?xml version="1.0" standalone="no"?>
<!DOCTYPE svg PUBLIC "-//W3C//DTD SVG 20010904//EN"
 "http://www.w3.org/TR/2001/REC-SVG-20010904/DTD/svg10.dtd">
<svg version="1.0" xmlns="http://www.w3.org/2000/svg"
 width="242.000000pt" height="242.000000pt" viewBox="0 0 242.000000 242.000000"
 preserveAspectRatio="xMidYMid meet">
<metadata>
Created by potrace 1.11, written by Peter Selinger 2001-2013
</metadata>
<g transform="translate(0.000000,242.000000) scale(0.100000,-0.100000)"
fill="#000000" stroke="none">
<path d="M394 2325 c-4 -8 -4 -25 -1 -38 3 -12 -1 -31 -9 -41 -23 -32 -17 -91
16 -156 18 -35 26 -61 20 -65 -19 -12 -11 -52 14 -63 24 -11 66 -6 66 8 0 15
43 19 57 4 9 -9 23 -12 37 -8 31 9 39 19 39 49 0 20 9 32 38 51 55 35 52 85
-5 95 -11 2 -33 28 -50 56 -36 62 -60 81 -112 89 -20 3 -44 12 -51 20 -19 18
-52 18 -59 -1z"/>
<path d="M1882 2265 c-58 -25 -69 -99 -23 -146 52 -52 138 -27 156 44 10 38
-20 93 -57 106 -38 13 -36 13 -76 -4z m78 -45 c24 -24 25 -47 3 -72 -32 -35
-93 -13 -93 34 0 27 28 58 52 58 10 0 27 -9 38 -20z"/>
<path d="M1157 2143 c-52 -13 -137 -78 -137 -104 0 -10 -7 -22 -16 -27 -9 -5
-15 -12 -15 -15 5 -37 0 -48 -19 -42 -12 4 -20 2 -20 -5 0 -6 4 -9 8 -6 4 2
14 1 21 -3 7 -5 -17 -8 -53 -9 -45 0 -64 3 -62 11 1 7 1 9 -1 4 -3 -4 -9 -5
-14 -2 -5 4 -6 0 -3 -8 4 -10 -3 -13 -25 -9 -19 2 -29 9 -25 16 3 6 -1 3 -9
-7 -12 -14 -16 -15 -20 -4 -3 8 -1 19 4 24 6 6 5 10 -4 10 -8 0 -14 -7 -13
-16 1 -9 -3 -17 -9 -17 -5 -1 -9 2 -7 8 1 5 -2 7 -8 3 -6 -3 -8 -11 -5 -16 6
-8 -2 -11 -22 -8 -3 0 -10 -6 -15 -15 -5 -9 -15 -16 -22 -16 -15 0 -52 -68
-47 -89 1 -8 -2 -10 -11 -5 -10 6 -10 4 1 -9 7 -9 9 -17 4 -17 -5 0 -7 -21 -3
-50 6 -46 -1 -67 -13 -37 -4 9 -6 9 -6 0 -1 -6 4 -15 9 -18 6 -3 10 -20 10
-36 0 -18 -4 -28 -10 -24 -5 3 -10 1 -10 -4 0 -6 7 -11 15 -11 11 0 12 -5 5
-25 -6 -15 -6 -26 1 -30 5 -4 6 -13 0 -22 -4 -9 -5 -31 -1 -49 7 -29 5 -34
-10 -34 -11 0 -21 -4 -24 -9 -4 -5 2 -7 13 -4 26 7 35 -12 15 -31 -8 -9 -11
-16 -5 -16 5 0 11 -12 13 -27 2 -22 -3 -31 -22 -40 -22 -11 -22 -12 -2 -7 12
3 22 1 22 -5 0 -6 -4 -11 -10 -11 -5 0 -10 -8 -9 -17 0 -11 3 -13 6 -5 10 24
19 11 15 -21 -2 -20 -9 -34 -17 -34 -8 0 -13 9 -12 20 1 12 -5 21 -15 22 -10
2 -18 -1 -18 -7 0 -6 7 -8 15 -4 10 4 14 -1 12 -17 -1 -13 3 -21 11 -19 21 4
27 -29 8 -43 -16 -12 -16 -14 0 -29 9 -9 13 -20 9 -24 -4 -4 -15 4 -26 17 -10
13 -19 19 -19 13 0 -6 10 -19 23 -29 25 -20 48 -51 29 -39 -16 9 -15 -7 0 -22
9 -9 8 -12 -5 -12 -16 0 -19 5 -21 40 -1 8 -8 15 -16 16 -9 0 -10 -1 -2 -3 7
-3 10 -9 7 -14 -3 -5 -1 -18 6 -30 10 -19 9 -21 -5 -16 -10 4 -15 3 -11 -3 3
-6 18 -7 33 -4 l27 7 -25 -20 c-24 -21 -25 -21 -38 -2 -7 11 -18 17 -23 14 -5
-4 -9 -2 -9 4 0 5 6 12 13 14 9 4 9 6 -1 6 -7 1 -15 -6 -18 -14 -5 -11 -9 -12
-19 -2 -7 7 -11 15 -9 18 2 3 -3 6 -11 6 -8 0 -12 -4 -9 -9 3 -4 0 -8 -5 -8
-6 0 -11 -5 -11 -11 0 -8 5 -8 15 1 14 12 19 7 16 -13 -1 -5 3 -6 8 -3 5 4 13
2 16 -4 5 -8 11 -7 21 1 14 12 20 -2 7 -15 -8 -8 -9 -13 -12 -42 0 -9 -6 -12
-13 -8 -7 4 -8 3 -4 -4 7 -11 36 -6 34 6 -2 20 3 32 11 27 6 -3 19 5 31 17 21
22 22 22 20 3 -1 -11 -1 -22 0 -25 4 -13 4 -70 -1 -70 -3 0 -11 6 -18 13 -10
10 -11 9 -6 -5 4 -10 11 -18 17 -18 5 0 8 -8 6 -17 -1 -10 1 -24 6 -32 6 -10
5 -12 -2 -7 -16 9 -15 -7 0 -22 9 -9 8 -12 -8 -13 -10 0 -13 -3 -6 -6 16 -6
16 -35 0 -52 -9 -10 -9 -12 -1 -7 6 3 14 2 18 -4 3 -5 1 -10 -5 -10 -8 0 -7
-6 1 -22 10 -18 9 -20 -7 -14 -18 6 -18 5 0 -9 11 -8 15 -15 9 -15 -8 0 -6
-10 3 -30 9 -16 16 -38 17 -49 0 -11 10 -22 20 -25 12 -3 16 -9 11 -17 -4 -7
-3 -10 4 -5 6 3 21 -4 33 -16 12 -13 19 -17 15 -10 -4 6 -2 12 3 12 6 0 11 -8
11 -17 0 -11 3 -14 8 -7 11 16 105 14 118 -4 9 -12 13 -12 27 3 16 15 18 15
33 1 8 -9 19 -14 24 -11 5 3 16 -5 24 -17 9 -12 16 -17 16 -11 0 6 -7 16 -15
23 -25 21 -17 26 39 27 46 0 54 -2 49 -16 -3 -12 -1 -11 11 3 20 24 34 13 15
-12 -8 -10 -4 -8 8 5 22 23 39 31 28 13 -3 -5 -1 -10 4 -10 6 0 11 3 11 8 0 4
32 7 70 8 39 0 70 -3 70 -7 0 -16 47 -37 61 -28 12 8 12 10 -1 8 -18 -3 -50
10 -50 20 0 4 7 8 15 8 8 0 15 -4 15 -9 0 -4 5 -8 11 -8 5 0 8 4 5 9 -3 4 34
7 83 7 85 -2 89 -3 114 -31 15 -17 27 -38 27 -47 0 -26 16 -30 36 -11 17 17
17 17 12 -5 -3 -12 -2 -20 3 -16 5 3 9 12 9 21 0 12 3 13 15 3 8 -6 20 -8 26
-4 8 5 11 2 7 -7 -4 -10 1 -15 13 -15 21 0 25 12 7 19 -7 2 4 4 25 2 46 -2 54
-9 36 -32 -13 -16 -12 -17 4 -4 10 8 16 20 13 28 -3 7 -1 13 4 13 6 0 10 -5
10 -11 0 -6 7 -3 16 6 9 9 23 14 30 11 8 -3 14 0 14 7 0 8 4 6 10 -3 7 -11 10
-11 10 -2 0 21 69 84 83 76 8 -5 7 -2 -2 9 -9 11 -10 17 -2 17 6 0 10 3 10 8
-5 27 2 52 13 46 7 -5 8 -3 3 6 -12 19 -14 70 -3 70 6 0 7 8 3 18 -15 38 -14
51 3 45 13 -4 13 -3 -2 9 -12 10 -17 21 -13 32 4 10 3 15 -3 11 -10 -6 -14 11
-12 50 0 11 -2 14 -5 7 -3 -8 -16 -1 -40 23 -19 19 -41 35 -49 35 -8 0 -11 6
-7 17 4 9 2 14 -3 10 -6 -4 -9 6 -6 24 2 16 8 32 13 34 4 3 6 -4 4 -16 -2 -12
2 -30 9 -41 11 -16 14 -17 19 -4 4 9 1 15 -5 13 -6 -1 -13 4 -15 11 -3 8 1 10
11 6 9 -3 16 -1 16 5 0 6 -5 10 -12 8 -7 -1 -12 5 -13 13 0 8 -8 14 -18 12
-10 -2 -15 2 -12 10 3 8 15 14 25 15 13 1 18 -2 14 -9 -5 -7 -2 -8 6 -3 10 6
10 11 -3 20 -9 7 -13 16 -9 20 4 5 1 5 -6 1 -7 -4 -10 -12 -7 -17 3 -5 -1 -6
-9 -3 -14 5 -13 10 4 34 11 16 17 35 14 44 -5 12 -2 15 10 10 9 -3 16 -2 16 4
0 21 -35 5 -36 -17 -1 -12 -4 -24 -8 -28 -12 -13 -15 4 -6 37 7 24 6 36 -1 41
-7 4 -4 9 10 14 11 3 21 11 21 18 0 8 -3 8 -12 -1 -21 -21 -32 -13 -13 8 15
16 15 20 3 15 -12 -5 -14 -1 -10 20 2 15 11 29 18 32 21 8 17 22 -5 16 -16 -4
-18 0 -15 27 2 18 15 43 28 55 23 21 26 21 42 6 15 -13 15 -12 -1 7 -17 21
-21 21 -31 8 -6 -9 -14 -13 -17 -9 -4 3 -7 1 -7 -5 0 -7 -5 -12 -10 -12 -7 0
-7 6 0 19 13 25 13 34 -1 25 -8 -4 -8 0 0 15 8 14 8 21 1 21 -6 0 -6 7 2 19 6
10 17 17 25 14 7 -3 11 -9 8 -13 -3 -5 -1 -11 4 -14 5 -4 8 1 7 10 -3 19 -25
34 -41 28 -7 -3 -11 4 -9 18 1 13 3 26 3 30 1 5 6 7 12 5 6 -1 14 4 16 11 3 6
0 12 -7 12 -6 0 -8 -4 -5 -10 3 -5 0 -7 -9 -4 -20 8 -8 34 12 27 10 -3 8 1 -6
11 -17 13 -20 21 -13 35 7 12 6 22 -1 29 -9 9 -9 12 -1 12 8 0 9 9 3 30 -5 18
-5 30 1 30 5 0 9 5 9 11 0 5 -4 8 -9 5 -10 -7 -9 13 2 31 4 6 1 13 -5 16 -10
3 -10 7 1 20 11 14 11 17 1 17 -8 0 -11 3 -7 6 3 4 -1 20 -9 37 -13 25 -14 31
-2 39 10 7 10 9 -2 7 -27 -3 -40 1 -40 12 0 5 6 7 13 3 9 -6 9 -5 0 8 -7 8 -9
19 -5 23 4 5 1 5 -6 1 -7 -4 -10 -12 -7 -17 8 -12 -8 -12 -21 1 -9 9 -43 18
-76 19 -10 1 -18 7 -18 15 0 8 -4 17 -9 20 -4 3 -6 -5 -4 -17 4 -21 2 -22 -68
-19 -48 3 -67 7 -58 13 8 5 11 9 6 9 -4 0 -16 -6 -27 -12 -16 -10 -22 -10 -32
1 -11 12 -10 13 7 8 18 -6 17 -5 -2 9 -13 9 -23 25 -23 36 0 18 2 19 18 7 15
-13 16 -12 3 4 -8 9 -16 15 -19 12 -7 -7 -47 57 -43 70 1 5 -1 7 -5 2 -4 -4
-17 2 -29 13 -41 38 -136 59 -198 43z m100 -160 c31 -29 34 -49 7 -51 -16 -1
-24 3 -24 14 0 14 3 14 15 4 10 -9 15 -9 15 -1 0 6 -4 11 -10 11 -5 0 -13 0
-17 1 -5 0 -11 -10 -14 -23 -6 -23 -6 -23 -18 5 -6 16 -15 26 -20 23 -5 -4
-12 -1 -14 4 -3 6 -4 5 -2 -2 1 -7 8 -12 14 -10 6 1 11 -8 10 -20 0 -13 -3
-18 -5 -11 -3 7 -12 9 -21 6 -11 -4 -14 -2 -9 5 4 7 2 12 -3 12 -6 0 -11 -8
-12 -17 0 -11 -2 -13 -6 -5 -6 16 25 64 37 57 6 -4 10 -1 10 4 0 17 45 13 67
-6z m-637 -843 c0 -5 -4 -10 -10 -10 -5 0 -10 5 -10 10 0 6 5 10 10 10 6 0 10
-4 10 -10z m-56 -158 c3 -5 -1 -9 -9 -9 -8 0 -12 4 -9 9 3 4 7 8 9 8 2 0 6 -4
9 -8z m316 -486 c0 -3 -4 -8 -10 -11 -5 -3 -10 -1 -10 4 0 6 5 11 10 11 6 0
10 -2 10 -4z m60 -6 c0 -5 -2 -10 -4 -10 -3 0 -8 5 -11 10 -3 6 -1 10 4 10 6
0 11 -4 11 -10z m640 -69 c0 -6 -4 -13 -10 -16 -5 -3 -10 1 -10 9 0 9 5 16 10
16 6 0 10 -4 10 -9z"/>
<path d="M1210 1980 c0 -5 5 -10 10 -10 6 0 10 5 10 10 0 6 -4 10 -10 10 -5 0
-10 -4 -10 -10z"/>
<path d="M1635 2029 c-4 -6 -5 -12 -2 -15 2 -3 7 2 10 11 7 17 1 20 -8 4z"/>
<path d="M935 2020 c-3 -5 -1 -10 4 -10 6 0 11 5 11 10 0 6 -2 10 -4 10 -3 0
-8 -4 -11 -10z"/>
<path d="M834 1989 c-3 -6 -2 -15 3 -20 5 -5 9 -1 9 11 0 23 -2 24 -12 9z"/>
<path d="M1501 1983 c7 -12 15 -20 18 -17 3 2 -3 12 -13 22 -17 16 -18 16 -5
-5z"/>
<path d="M1756 1987 c3 -10 9 -15 12 -12 3 3 0 11 -7 18 -10 9 -11 8 -5 -6z"/>
<path d="M896 1973 c-3 -7 0 -15 6 -19 7 -4 8 -3 4 4 -7 12 5 16 32 13 6 -1
12 2 12 7 0 13 -49 9 -54 -5z"/>
<path d="M1473 1975 c0 -8 4 -15 9 -15 4 0 8 4 8 9 0 6 -4 12 -8 15 -5 3 -9
-1 -9 -9z"/>
<path d="M1541 1976 c-10 -12 -8 -17 11 -26 20 -10 21 -10 6 3 -13 10 -15 16
-6 25 7 7 9 12 6 12 -3 0 -11 -6 -17 -14z"/>
<path d="M1599 1983 c-1 -5 -1 -12 0 -17 1 -5 -5 -6 -14 -2 -10 3 -14 2 -10
-5 9 -14 28 -6 31 14 1 9 0 17 -2 17 -2 0 -5 -3 -5 -7z"/>
<path d="M1714 1956 c1 -8 5 -18 8 -22 4 -3 5 1 4 10 -1 8 -5 18 -8 22 -4 3
-5 -1 -4 -10z"/>
<path d="M556 1867 c3 -10 9 -15 12 -12 3 3 0 11 -7 18 -10 9 -11 8 -5 -6z"/>
<path d="M596 1862 c-3 -5 1 -9 9 -9 8 0 12 4 9 9 -3 4 -7 8 -9 8 -2 0 -6 -4
-9 -8z"/>
<path d="M1815 1840 c3 -5 8 -10 11 -10 2 0 4 5 4 10 0 6 -5 10 -11 10 -5 0
-7 -4 -4 -10z"/>
<path d="M557 1793 c-10 -9 -9 -23 1 -23 5 0 9 7 9 15 0 17 -1 18 -10 8z"/>
<path d="M1895 1760 c-3 -5 -1 -10 4 -10 6 0 11 5 11 10 0 6 -2 10 -4 10 -3 0
-8 -4 -11 -10z"/>
<path d="M1832 1731 c-11 -7 -11 -9 0 -14 9 -3 15 1 15 9 0 8 -1 14 -1 14 -1
0 -7 -4 -14 -9z"/>
<path d="M1869 1723 c-13 -16 -12 -17 4 -4 9 7 17 15 17 17 0 8 -8 3 -21 -13z"/>
<path d="M515 1711 c-3 -5 -2 -12 3 -15 5 -3 9 1 9 9 0 17 -3 19 -12 6z"/>
<path d="M1835 1680 c-3 -6 1 -7 9 -4 18 7 21 14 7 14 -6 0 -13 -4 -16 -10z"/>
<path d="M1873 1669 c-2 -23 3 -25 10 -4 4 8 3 16 -1 19 -4 3 -9 -4 -9 -15z"/>
<path d="M570 1629 c0 -5 -4 -8 -8 -5 -5 3 -9 -1 -9 -8 0 -8 6 -12 14 -9 12 5
19 33 8 33 -3 0 -5 -5 -5 -11z"/>
<path d="M1840 1626 c0 -2 7 -7 16 -10 8 -3 12 -2 9 4 -6 10 -25 14 -25 6z"/>
<path d="M2038 1603 c-16 -19 -16 -49 1 -66 14 -14 62 -12 72 4 33 52 -33 107
-73 62z"/>
<path d="M1836 1595 c-9 -26 -7 -32 5 -12 6 10 9 21 6 23 -2 3 -7 -2 -11 -11z"/>
<path d="M564 1575 c-4 -8 -11 -12 -17 -8 -6 3 -7 1 -3 -5 10 -16 14 -15 26 8
6 11 8 20 5 20 -3 0 -8 -7 -11 -15z"/>
<path d="M1854 1579 c-3 -6 -1 -16 5 -22 9 -9 10 -7 5 8 -7 18 -6 19 12 5 18
-14 18 -14 5 3 -16 20 -18 20 -27 6z"/>
<path d="M515 1549 c-4 -6 -5 -12 -2 -15 2 -3 7 2 10 11 7 17 1 20 -8 4z"/>
<path d="M560 1540 c-8 -5 -10 -10 -5 -10 6 0 17 5 25 10 8 5 11 10 5 10 -5 0
-17 -5 -25 -10z"/>
<path d="M576 1522 c-2 -4 2 -18 10 -32 7 -14 13 -20 13 -15 1 6 -4 17 -9 25
-7 11 -5 17 8 22 16 6 16 7 0 7 -9 1 -19 -2 -22 -7z"/>
<path d="M1856 1505 c-3 -8 -1 -15 4 -15 6 0 10 7 10 15 0 8 -2 15 -4 15 -2 0
-6 -7 -10 -15z"/>
<path d="M345 1484 c-23 -24 -16 -76 13 -90 32 -16 60 -7 77 25 29 57 -45 110
-90 65z"/>
<path d="M548 1468 c5 -21 17 -23 28 -6 5 7 3 8 -6 3 -9 -6 -12 -4 -8 7 4 8 1
15 -7 15 -7 0 -10 -8 -7 -19z"/>
<path d="M1828 1478 c5 -5 16 -8 23 -6 8 3 3 7 -10 11 -17 4 -21 3 -13 -5z"/>
<path d="M1870 1460 c0 -5 9 -8 20 -7 21 1 18 10 -5 13 -8 1 -15 -2 -15 -6z"/>
<path d="M493 1445 c0 -8 4 -12 9 -9 5 3 6 10 3 15 -9 13 -12 11 -12 -6z"/>
<path d="M1893 1415 c0 -8 4 -12 9 -9 4 3 8 9 8 15 0 5 -4 9 -8 9 -5 0 -9 -7
-9 -15z"/>
<path d="M1833 1405 c0 -8 4 -15 9 -15 4 0 8 4 8 9 0 6 -4 12 -8 15 -5 3 -9
-1 -9 -9z"/>
<path d="M590 1399 c0 -5 5 -7 10 -4 6 3 10 8 10 11 0 2 -4 4 -10 4 -5 0 -10
-5 -10 -11z"/>
<path d="M570 1361 c0 -6 4 -11 9 -11 5 0 12 -8 14 -17 4 -15 5 -15 6 -2 0 9
-6 22 -14 29 -10 9 -15 9 -15 1z"/>
<path d="M496 1333 c-6 -14 -5 -15 5 -6 7 7 10 15 7 18 -3 3 -9 -2 -12 -12z"/>
<path d="M1910 1339 c0 -5 5 -7 10 -4 6 3 10 8 10 11 0 2 -4 4 -10 4 -5 0 -10
-5 -10 -11z"/>
<path d="M535 1329 c-4 -6 -5 -12 -2 -15 2 -3 7 2 10 11 7 17 1 20 -8 4z"/>
<path d="M1854 1315 c-4 -8 -11 -12 -18 -9 -6 3 -3 -1 6 -9 10 -8 14 -18 10
-22 -4 -5 -2 -5 5 -2 6 4 9 17 5 29 -4 16 -2 19 8 13 9 -5 11 -4 6 3 -10 16
-15 15 -22 -3z"/>
<path d="M558 1313 c7 -3 16 -2 19 1 4 3 -2 6 -13 5 -11 0 -14 -3 -6 -6z"/>
<path d="M1915 1300 c3 -5 8 -10 11 -10 2 0 4 5 4 10 0 6 -5 10 -11 10 -5 0
-7 -4 -4 -10z"/>
<path d="M526 1261 c-14 -15 -15 -21 -4 -27 7 -4 10 -3 5 1 -4 5 0 17 10 27 9
10 14 18 11 18 -3 0 -13 -9 -22 -19z"/>
<path d="M1893 1265 c0 -8 4 -15 9 -15 4 0 8 4 8 9 0 6 -4 12 -8 15 -5 3 -9
-1 -9 -9z"/>
<path d="M1860 1220 c18 -12 30 -13 30 -2 0 4 -10 9 -22 9 -18 2 -20 0 -8 -7z"/>
<path d="M1830 1210 c0 -6 7 -10 15 -10 8 0 15 2 15 4 0 2 -7 6 -15 10 -8 3
-15 1 -15 -4z"/>
<path d="M1977 1186 c-40 -47 -41 -72 -4 -114 40 -44 117 -6 117 58 0 31 -25
57 -66 69 -23 6 -32 4 -47 -13z m71 -57 c3 -28 -16 -43 -43 -33 -18 7 -20 50
-2 57 25 11 42 1 45 -24z"/>
<path d="M506 1178 c3 -5 9 -7 12 -4 3 3 12 0 21 -6 13 -10 14 -10 4 2 -15 16
-46 23 -37 8z"/>
<path d="M1855 1180 c3 -5 8 -10 11 -10 2 0 4 5 4 10 0 6 -5 10 -11 10 -5 0
-7 -4 -4 -10z"/>
<path d="M1893 1175 c0 -8 4 -12 9 -9 4 3 8 9 8 15 0 5 -4 9 -8 9 -5 0 -9 -7
-9 -15z"/>
<path d="M1881 1136 c-8 -10 -9 -16 -1 -21 6 -4 9 -1 8 7 -2 7 3 12 10 10 8
-1 11 2 7 8 -8 13 -10 13 -24 -4z"/>
<path d="M514 1060 c0 -13 4 -16 10 -10 7 7 7 13 0 20 -6 6 -10 3 -10 -10z"/>
<path d="M1873 1053 c-3 -7 -10 -10 -16 -6 -6 4 -7 1 -2 -7 6 -10 11 -10 20 3
7 9 14 14 17 11 4 -3 8 -1 12 4 3 5 -2 9 -10 9 -9 0 -18 -6 -21 -14z"/>
<path d="M434 1035 c3 -23 12 -26 13 -5 1 11 -2 20 -7 20 -4 0 -7 -7 -6 -15z"/>
<path d="M1876 1007 c3 -10 9 -15 12 -12 3 3 0 11 -7 18 -10 9 -11 8 -5 -6z"/>
<path d="M405 980 c-3 -6 1 -7 9 -4 18 7 21 14 7 14 -6 0 -13 -4 -16 -10z"/>
<path d="M1875 971 c-3 -5 -2 -12 3 -15 5 -3 9 1 9 9 0 17 -3 19 -12 6z"/>
<path d="M586 952 c-3 -5 1 -9 9 -9 8 0 12 4 9 9 -3 4 -7 8 -9 8 -2 0 -6 -4
-9 -8z"/>
<path d="M553 943 c4 -3 2 -12 -4 -19 -7 -8 -7 -14 1 -19 5 -3 10 -11 10 -17
0 -7 -7 -5 -17 4 -29 24 -44 31 -41 17 2 -6 -3 -14 -11 -17 -9 -3 -11 0 -6 9
6 11 5 11 -5 3 -9 -10 -7 -17 10 -34 20 -20 21 -20 16 -3 -5 16 -2 19 16 18
15 -1 22 -8 21 -20 -1 -12 2 -14 10 -6 14 14 18 91 4 91 -5 0 -7 -3 -4 -7z"/>
<path d="M395 931 c-3 -5 0 -13 6 -17 8 -5 9 -3 4 6 -6 10 -4 12 9 7 10 -4 15
-3 11 3 -8 13 -22 13 -30 1z"/>
<path d="M425 900 c-3 -5 -1 -10 4 -10 6 0 11 5 11 10 0 6 -2 10 -4 10 -3 0
-8 -4 -11 -10z"/>
<path d="M1874 898 c-4 -5 -3 -12 0 -15 3 -4 6 -1 6 6 0 7 4 10 9 6 5 -3 12
-2 15 3 3 5 -2 9 -10 9 -8 0 -17 -4 -20 -9z"/>
<path d="M1891 866 c-9 -10 -8 -15 2 -19 8 -3 13 3 13 14 0 23 0 23 -15 5z"/>
<path d="M570 866 c0 -2 7 -7 16 -10 8 -3 12 -2 9 4 -6 10 -25 14 -25 6z"/>
<path d="M564 839 c-3 -6 -1 -16 5 -22 7 -7 5 -14 -7 -24 -15 -12 -14 -13 7
-3 17 9 20 15 12 23 -15 15 -14 30 1 21 7 -4 8 -3 4 4 -9 15 -13 15 -22 1z"/>
<path d="M545 760 c-3 -6 1 -7 9 -4 18 7 21 14 7 14 -6 0 -13 -4 -16 -10z"/>
<path d="M559 693 c-12 -16 -12 -17 2 -6 9 7 19 10 22 6 4 -3 7 -1 7 5 0 17
-16 15 -31 -5z"/>
<path d="M570 660 c0 -5 5 -10 11 -10 5 0 7 5 4 10 -3 6 -8 10 -11 10 -2 0 -4
-4 -4 -10z"/>
<path d="M574 622 c4 -3 14 -7 22 -8 9 -1 13 0 10 4 -4 3 -14 7 -22 8 -9 1
-13 0 -10 -4z"/>
<path d="M576 567 c3 -10 9 -15 12 -12 3 3 0 11 -7 18 -10 9 -11 8 -5 -6z"/>
<path d="M975 480 c3 -5 8 -10 11 -10 2 0 4 5 4 10 0 6 -5 10 -11 10 -5 0 -7
-4 -4 -10z"/>
<path d="M1003 472 c-9 -15 -8 -19 3 -19 8 0 12 3 9 5 -3 3 0 11 6 19 6 7 7
13 3 13 -5 0 -14 -8 -21 -18z"/>
<path d="M1208 463 c5 -21 7 -23 10 -9 2 10 0 22 -6 28 -6 6 -7 0 -4 -19z"/>
<path d="M1230 479 c0 -5 5 -7 10 -4 6 3 10 8 10 11 0 2 -4 4 -10 4 -5 0 -10
-5 -10 -11z"/>
<path d="M1354 451 c0 -22 4 -37 7 -35 7 4 4 62 -3 70 -3 2 -5 -13 -4 -35z"/>
<path d="M1375 480 c3 -5 8 -10 11 -10 2 0 4 5 4 10 0 6 -5 10 -11 10 -5 0 -7
-4 -4 -10z"/>
<path d="M1405 480 c-3 -5 -2 -10 4 -10 5 0 13 5 16 10 3 6 2 10 -4 10 -5 0
-13 -4 -16 -10z"/>
<path d="M1442 485 c4 -4 0 -14 -10 -22 -15 -13 -15 -13 5 -4 29 15 33 14 33
-6 0 -15 1 -15 13 2 10 12 16 14 21 7 4 -7 2 -12 -5 -12 -10 0 -10 -3 -1 -12
8 -8 15 -9 22 -2 7 7 2 18 -16 35 -15 13 -24 18 -20 12 9 -16 1 -16 -27 -2
-12 7 -19 8 -15 4z"/>
<path d="M1148 473 c7 -3 16 -2 19 1 4 3 -2 6 -13 5 -11 0 -14 -3 -6 -6z"/>
<path d="M1181 464 c0 -11 3 -14 6 -6 3 7 2 16 -1 19 -3 4 -6 -2 -5 -13z"/>
<path d="M750 456 c7 -7 13 -7 20 0 6 6 3 10 -10 10 -13 0 -16 -4 -10 -10z"/>
<path d="M820 460 c-8 -5 -10 -10 -5 -10 6 0 17 5 25 10 8 5 11 10 5 10 -5 0
-17 -5 -25 -10z"/>
<path d="M886 462 c-3 -5 1 -9 9 -9 8 0 15 4 15 9 0 4 -4 8 -9 8 -6 0 -12 -4
-15 -8z"/>
<path d="M1030 461 c0 -5 7 -15 17 -22 15 -13 15 -12 4 9 -12 23 -21 28 -21
13z"/>
<path d="M1100 466 c0 -2 7 -6 15 -10 8 -3 15 -1 15 4 0 6 -7 10 -15 10 -8 0
-15 -2 -15 -4z"/>
<path d="M1250 459 c0 -5 4 -8 9 -4 5 3 12 1 16 -5 3 -5 11 -10 18 -10 6 0 2
7 -9 15 -23 17 -34 19 -34 4z"/>
<path d="M855 449 c-4 -6 -5 -12 -2 -15 2 -3 7 2 10 11 7 17 1 20 -8 4z"/>
<path d="M920 456 c0 -2 7 -7 16 -10 8 -3 12 -2 9 4 -6 10 -25 14 -25 6z"/>
<path d="M1388 453 c7 -3 16 -2 19 1 4 3 -2 6 -13 5 -11 0 -14 -3 -6 -6z"/>
<path d="M1155 441 c-9 -15 15 -25 28 -12 9 9 7 10 -7 5 -13 -5 -17 -4 -12 4
4 7 5 12 2 12 -3 0 -7 -4 -11 -9z"/>
<path d="M1233 435 c0 -8 4 -12 9 -9 5 3 6 10 3 15 -9 13 -12 11 -12 -6z"/>
<path d="M913 425 c0 -8 4 -12 9 -9 5 3 6 10 3 15 -9 13 -12 11 -12 -6z"/>
<path d="M766 418 c3 -5 10 -6 15 -3 13 9 11 12 -6 12 -8 0 -12 -4 -9 -9z"/>
<path d="M814 422 c4 -3 14 -7 22 -8 9 -1 13 0 10 4 -4 3 -14 7 -22 8 -9 1
-13 0 -10 -4z"/>
<path d="M1456 418 c3 -4 11 -5 19 -1 21 7 19 12 -4 10 -11 0 -18 -5 -15 -9z"/>
<path d="M1130 399 c0 -5 5 -7 10 -4 6 3 10 8 10 11 0 2 -4 4 -10 4 -5 0 -10
-5 -10 -11z"/>
<path d="M1210 399 c0 -5 5 -7 10 -4 6 3 10 8 10 11 0 2 -4 4 -10 4 -5 0 -10
-5 -10 -11z"/>
<path d="M1493 391 c0 -11 5 -18 9 -15 4 3 5 11 1 19 -7 21 -12 19 -10 -4z"/>
<path d="M1795 400 c-3 -5 -1 -10 4 -10 6 0 11 5 11 10 0 6 -2 10 -4 10 -3 0
-8 -4 -11 -10z"/>
<path d="M1620 379 c0 -5 5 -7 10 -4 6 3 10 8 10 11 0 2 -4 4 -10 4 -5 0 -10
-5 -10 -11z"/>
<path d="M1565 360 c-3 -6 1 -7 9 -4 18 7 21 14 7 14 -6 0 -13 -4 -16 -10z"/>
</g>
</svg>
